<svg xmlns="http://www.w3.org/2000/svg" viewBox="0 0 580.99 112.63">
  <title>logo</title>
  <g id="Layer_2" data-name="Layer 2">
    <g id="Layer_1-2" data-name="Layer 1">
      <g id="_Group_" data-name="&lt;Group&gt;">
        <path id="_Compound_Path_" data-name="&lt;Compound Path&gt;" d="M76.69,110.24H60.58a2.39,2.39,0,0,1-2.33-2.33V3.62A2.27,2.27,0,0,1,59,2a2.26,2.26,0,0,1,1.63-.69H76.69A2.26,2.26,0,0,1,78.32,2,2.26,2.26,0,0,1,79,3.62V107.91a2.37,2.37,0,0,1-2.32,2.33Zm-58.1-.34H2.79a2.6,2.6,0,0,1-2-.85A2.8,2.8,0,0,1,0,107.12V4.09A2.7,2.7,0,0,1,.85,2.15,2.67,2.67,0,0,1,2.79,1.3h15.8a2.66,2.66,0,0,1,1.94.85,2.66,2.66,0,0,1,.85,1.94V45.45a2.79,2.79,0,0,0,.78,1.94,2.56,2.56,0,0,0,2,.85H49.94a2.8,2.8,0,0,1,1.93.77,2.61,2.61,0,0,1,.86,2V64.2A2.93,2.93,0,0,1,49.94,67H24.17a2.66,2.66,0,0,0-2.79,2.79v37.34a2.91,2.91,0,0,1-2.79,2.78Z" style="fill: #bd5158"/>
        <path id="_Compound_Path_2" data-name="&lt;Compound Path&gt;" d="M95.69,29.5A57.23,57.23,0,0,1,128.6,2.62,52.76,52.76,0,0,1,147.78.24,53.26,53.26,0,0,1,169.91,6,55.21,55.21,0,0,1,187.3,19.89l.18.25a2.73,2.73,0,0,1,.51,2.23,4,4,0,0,1-1.27,2.2l-10.82,8q-2.35,1.76-4.55-.67a35.23,35.23,0,0,0-11.12-8.34,32.51,32.51,0,0,0-13.53-3.26,35.51,35.51,0,0,0-23.51,7.06,36,36,0,0,0-10.06,11.53,34.61,34.61,0,0,0-4.34,14.81,35.59,35.59,0,0,0,18.46,33.39A32.62,32.62,0,0,0,142,91.19a34.53,34.53,0,0,0,12.51-1.48,36.88,36.88,0,0,0,11-5.58,35.76,35.76,0,0,0,10.87-12.91,6.88,6.88,0,0,1,2-2.47,4.56,4.56,0,0,1,4-.63c.91.35,2.73,1,5.48,1.91s4.46,1.5,5.16,1.76a4.38,4.38,0,0,1,2,1.4,4,4,0,0,1,.36,4.37,55.69,55.69,0,0,1-18.07,22.7A56.57,56.57,0,0,1,160.19,109,53.93,53.93,0,0,1,141,111.29a49.84,49.84,0,0,1-23.32-6.3A56.73,56.73,0,0,1,99.29,89a54.93,54.93,0,0,1-8.61-17.16A49.79,49.79,0,0,1,88.75,53,55.41,55.41,0,0,1,95.69,29.5Z" style="fill: #bd5158"/>
        <path id="_Compound_Path_3" data-name="&lt;Compound Path&gt;" d="M291.4,74.88a57.22,57.22,0,0,1-28.75,31.3,56.22,56.22,0,0,1-41.36,2.56,55.08,55.08,0,0,1-19.2-11.29l-.21-.22a2.7,2.7,0,0,1-.82-2.14,4,4,0,0,1,.94-2.35l9.56-9.5c1.39-1.39,2.93-1.38,4.6,0a35.13,35.13,0,0,0,12.2,6.67,32.44,32.44,0,0,0,13.85,1.3A36,36,0,0,0,272.79,68,34.55,34.55,0,0,0,275,52.76a35.63,35.63,0,0,0-23-30.42,32.68,32.68,0,0,0-15.23-1.91,34.64,34.64,0,0,0-12.17,3.25,36.51,36.51,0,0,0-10.1,7.09,35.63,35.63,0,0,0-8.92,14.32,6.8,6.8,0,0,1-1.65,2.74A4.58,4.58,0,0,1,200.05,49q-1.41-.33-5.69-1.11c-2.85-.52-4.64-.86-5.37-1a4.46,4.46,0,0,1-2.18-1.11,4,4,0,0,1-1-4.27,55.65,55.65,0,0,1,14.65-25A56.78,56.78,0,0,1,216.24,5.41a54,54,0,0,1,18.69-5,49.82,49.82,0,0,1,24,2.92,56.64,56.64,0,0,1,20.44,13.21,54.86,54.86,0,0,1,11,15.75,49.6,49.6,0,0,1,4.6,18.37A55.16,55.16,0,0,1,291.4,74.88Z" style="fill: #bd5158"/>
        <path id="_Compound_Path_4" data-name="&lt;Compound Path&gt;" d="M301.83,109.22a2.67,2.67,0,0,1-.86-1.94V4.41a2.86,2.86,0,0,1,.86-2.1,2.68,2.68,0,0,1,1.93-.85h16.73a2.7,2.7,0,0,1,1.94.85,2.85,2.85,0,0,1,.85,2.1V40L354.73,3.17a4.26,4.26,0,0,1,3.41-1.71H380.3c1.13,0,1.8.21,2,.62a1.1,1.1,0,0,1-.15,1.24l-56.4,66a11.19,11.19,0,0,0-2.48,7.44v30.52a2.82,2.82,0,0,1-.77,1.94,2.6,2.6,0,0,1-2,.85H303.76A2.64,2.64,0,0,1,301.83,109.22Zm56.7,0a5.9,5.9,0,0,1-2.4-2.09l-16.42-23.4a5.56,5.56,0,0,1-1.09-2.79A4.77,4.77,0,0,1,339.86,78c.83-.93,1.78-2,2.87-3.33s2.14-2.51,3.17-3.64l3.26-3.88a2.69,2.69,0,0,1,2.17-1.24,2.73,2.73,0,0,1,2.32,1.4l27.89,39.51a2.56,2.56,0,0,1,.31,1.08c0,1.34-.93,2.07-2.79,2.17h-15.8A13.34,13.34,0,0,1,358.53,109.22Z" style="fill: #bd5158"/>
        <path id="_Compound_Path_5" data-name="&lt;Compound Path&gt;" d="M562.24,109.53,561,108q-6-9.45-19.75-30.68T520.57,44.92c-.62-.72-1-1.08-1.24-1.08s-.34.2-.39.62a8.66,8.66,0,0,0-.08.93l.31,61.81a2.82,2.82,0,0,1-.77,1.94,2.6,2.6,0,0,1-2,.85h-15a3,3,0,0,1-2.1-.77,2.63,2.63,0,0,1-.85-2V4.48a2.9,2.9,0,0,1,2.95-2.94h15.18a2.36,2.36,0,0,1,1.86.93l37.49,62.44c.93,1.75,1.71,2.63,2.33,2.63s.77-.88.77-2.63l-.15-60.43a2.84,2.84,0,0,1,.85-2.09,2.68,2.68,0,0,1,1.93-.85h16.43A2.9,2.9,0,0,1,581,4.48V106.74a2.6,2.6,0,0,1-.85,2,3,3,0,0,1-2.09.78H562.24Z" style="fill: #bd5158"/>
        <g id="_Group_2" data-name="&lt;Group&gt;">
          <g id="_Group_3" data-name="&lt;Group&gt;">
            <path id="_Path_" data-name="&lt;Path&gt;" d="M432.27,27.11a5.39,5.39,0,0,1,2.42-.77,24.42,24.42,0,0,1-2.15-2.5c-.69-1-1.32-2-1.93-3-1.3-2.18-2.52-4.41-3.71-6.64s-2.39-4.57-3.56-6.87a51.63,51.63,0,0,1,15.73-1A54.53,54.53,0,0,1,454,9.64l0-.06.19.06,1.87-4.88a61.34,61.34,0,0,0-30.61-3.17,55.17,55.17,0,0,0-14,4.25,59.42,59.42,0,0,0-11.88,7.32,59.77,59.77,0,0,0-6.17,5.4l3.64,3.53.11.11a51.63,51.63,0,0,1,4.89-4.33,63.65,63.65,0,0,1,5.53-4c1.38-.87,2.8-1.68,4.26-2.41,2.61,4.25,5.25,8.48,8,12.64,1.2,1.81,2.4,3.67,3.77,5.35h0a39.21,39.21,0,0,0,3.19,3.38c1-3.16,4-4.91,5.44-5.72Z" style="fill: #bd5158"/>
            <path id="_Compound_Path_6" data-name="&lt;Compound Path&gt;" d="M427,33.47l-.53-.52a38.57,38.57,0,0,1-3.09-3.28c-1.25-1.53-2.36-3.21-3.44-4.84l-.35-.54c-2.77-4.17-5.4-8.4-7.85-12.38-1.35.69-2.67,1.45-3.94,2.26a58.82,58.82,0,0,0-5.5,4,52.67,52.67,0,0,0-4.86,4.3l-.24.25-4.26-4.13.25-.24a66.94,66.94,0,0,1,18.15-12.8A55.58,55.58,0,0,1,425.4,1.25a61.4,61.4,0,0,1,30.78,3.19l.33.12-2,5.54-.07-.07h0L454,10a54.28,54.28,0,0,0-14.87-3.32,51.41,51.41,0,0,0-15.21.93c1.22,2.4,2.31,4.52,3.34,6.45s2.33,4.35,3.69,6.63c.59,1,1.22,2,1.92,3a27,27,0,0,0,2.11,2.47l.54.57h-.79a5.11,5.11,0,0,0-2.25.72c-1.82,1-4.35,2.67-5.28,5.53ZM412,11l.16.28c2.49,4,5.19,8.37,8,12.63l.35.54c1.07,1.61,2.17,3.28,3.4,4.78a35.51,35.51,0,0,0,2.78,3,11.27,11.27,0,0,1,4.93-5.13h0l.4-.22.07,0h0l0,0,.2-.11h0a6.36,6.36,0,0,1,1.61-.59,22,22,0,0,1-1.7-2c-.71-1-1.36-2-1.95-3-1.37-2.3-2.65-4.66-3.71-6.66s-2.26-4.29-3.57-6.87l-.2-.4.43-.1A51.91,51.91,0,0,1,439.1,6,54.69,54.69,0,0,1,453.78,9.2l.19,0L455.61,5a60.94,60.94,0,0,0-30.1-3,54.58,54.58,0,0,0-13.89,4.22,58.33,58.33,0,0,0-11.81,7.28,61.31,61.31,0,0,0-5.89,5.11l3.25,3.16a54,54,0,0,1,4.68-4.11,61.67,61.67,0,0,1,5.56-4c1.38-.88,2.83-1.69,4.29-2.43Z" style="fill: #fff"/>
          </g>
          <g id="_Group_4" data-name="&lt;Group&gt;">
            <path id="_Path_2" data-name="&lt;Path&gt;" d="M447.43,41.55l-3.67,1.62-2.26,1-1.58.7c1.79,1.59,3.58,3.17,5.39,4.75a6.6,6.6,0,0,0,1.33,7.56l1.08,1,2,1.86,1.82,1.68,2.95,2.73a2.86,2.86,0,0,0,3,.37,1.37,1.37,0,0,0,.83-.91,8.58,8.58,0,0,0,.06-1.24c0-.31.07-.52.38-.62s.77-.19,1.14-.35a1.71,1.71,0,0,0,1.06-.94,5.51,5.51,0,0,0,.08-1.35c.1-1,1.25-.8,1.95-1.13a1.31,1.31,0,0,0,.76-1,10.19,10.19,0,0,0,.07-1.24c0-.27,0-.63.25-.8s.63-.14.92-.27a1.94,1.94,0,0,0,1.06-2.36,3,3,0,0,0-.82-1.49l-1.9-1.76c.92-.09.78-1.2.53-1.82a7.71,7.71,0,0,0-1.6-2.24,10.69,10.69,0,0,0-4.95-3,7.79,7.79,0,0,0-1.59-.28l0-.07a8.73,8.73,0,0,0-3.49.59l-.63-.54h0c-.59-.51-1.56-1.35-2.75-2.4A2.8,2.8,0,0,1,447.43,41.55Z" style="fill: #bd5158"/>
            <path id="_Compound_Path_7" data-name="&lt;Compound Path&gt;" d="M456.27,65.42a3,3,0,0,1-2-.72l-7.84-7.27a6.92,6.92,0,0,1-1.53-7.72q-2.61-2.28-5.2-4.58l-.4-.36,8-3.54a2.46,2.46,0,0,0,1.27-1.69l.13-.57.44.39c1.19,1,2.16,1.89,2.75,2.39l.47.41a9,9,0,0,1,3.43-.54l.58,0-.06.11a8.76,8.76,0,0,1,1.11.23,11.07,11.07,0,0,1,5.11,3.12,8,8,0,0,1,1.67,2.35,2.15,2.15,0,0,1,0,1.79,1,1,0,0,1-.24.28l1.5,1.39a3.33,3.33,0,0,1,.92,1.66,2.26,2.26,0,0,1-1.27,2.76,2.21,2.21,0,0,1-.47.13,1.26,1.26,0,0,0-.4.12c-.08.05-.08.29-.09.45v.36a5.74,5.74,0,0,1-.07,1,1.62,1.62,0,0,1-1,1.19,3.75,3.75,0,0,1-.81.23c-.65.12-.9.21-.94.62a3.53,3.53,0,0,0,0,.46,3,3,0,0,1-.1,1A2.06,2.06,0,0,1,460.05,62a5.64,5.64,0,0,1-.7.21c-.15,0-.31.08-.47.14s-.13,0-.14.31,0,.25,0,.38a4.74,4.74,0,0,1-.06.91,1.67,1.67,0,0,1-1,1.15A3.26,3.26,0,0,1,456.27,65.42ZM440.55,45q2.49,2.2,5,4.38l.2.18-.11.23a6.23,6.23,0,0,0,1.26,7.16l7.84,7.27a2.52,2.52,0,0,0,2.63.3,1,1,0,0,0,.63-.66,3.21,3.21,0,0,0,.06-.77v-.41a.93.93,0,0,1,.61-.94l.53-.16a4.56,4.56,0,0,0,.6-.18,1.46,1.46,0,0,0,.86-.73,2.2,2.2,0,0,0,.06-.74,4.73,4.73,0,0,1,0-.53c.08-1,.9-1.13,1.5-1.25a2.79,2.79,0,0,0,.65-.17.92.92,0,0,0,.55-.7,4.06,4.06,0,0,0,.06-.87v-.31a1.2,1.2,0,0,1,.41-1.08,1.66,1.66,0,0,1,.64-.21,1.93,1.93,0,0,0,.33-.09,1.59,1.59,0,0,0,.86-2,2.53,2.53,0,0,0-.72-1.31l-2.47-2.29.77-.08a.36.36,0,0,0,.32-.17,1.53,1.53,0,0,0-.07-1.16A7.49,7.49,0,0,0,462,45.58a10.41,10.41,0,0,0-4.79-2.93,7.42,7.42,0,0,0-1.53-.26l-.52,0,0,0a8.27,8.27,0,0,0-2.79.58l-.2.07-.79-.68-2.35-2.05a3.09,3.09,0,0,1-1.49,1.64Z" style="fill: #fff"/>
          </g>
          <g id="_Group_5" data-name="&lt;Group&gt;">
            <path id="_Path_3" data-name="&lt;Path&gt;" d="M406.4,46.77a6.92,6.92,0,0,1,.1-2.9,33.26,33.26,0,0,1-5.6,1.81c-1.9.37-3.82.58-5.74.78-3.4.36-6.8.61-10.2.84a50.67,50.67,0,0,1,4.79-13.95,51.38,51.38,0,0,1,4.74-7.46l-4.15-3.17a55.53,55.53,0,0,0-11.06,27.14A55.26,55.26,0,0,0,379.7,66a56,56,0,0,0,4.51,14.35c.68,1.43,1.42,2.84,2.21,4.2l4.52-2.62a50.33,50.33,0,0,1-5.49-13.87,51,51,0,0,1-1.27-8.77c4.81-.71,9.61-1.44,14.38-2.35,1.58-.3,3.18-.6,4.73-1a51.83,51.83,0,0,0,5.79-2.2l.16-.06c-2-1.35-2.38-3.1-2.84-6.86C406.23,45.4,406.86,50.53,406.4,46.77Z" style="fill: #bd5158"/>
            <path id="_Compound_Path_8" data-name="&lt;Compound Path&gt;" d="M386.3,85l-.18-.3c-.79-1.37-1.54-2.79-2.22-4.23a56.35,56.35,0,0,1-5-30.68,55.86,55.86,0,0,1,3.88-14.75,56.48,56.48,0,0,1,7.25-12.56l.21-.28L395,25.82l-.21.28a50.63,50.63,0,0,0-4.71,7.41,50.12,50.12,0,0,0-4.67,13.41c2.75-.18,6.25-.44,9.73-.8,1.85-.2,3.82-.42,5.71-.78a33.3,33.3,0,0,0,5.55-1.79l.68-.27-.23.7a6.93,6.93,0,0,0-.09,2.74h0v0c.44,3.59.83,5.3,2.68,6.58l.53.36-1.31.55a47.38,47.38,0,0,1-5.26,2c-1.58.45-3.2.76-4.76,1.06-4.7.89-9.53,1.62-14.08,2.3A50.55,50.55,0,0,0,385.79,68a49.74,49.74,0,0,0,5.45,13.77l.18.3Zm4.1-61.82a55.45,55.45,0,0,0-5.87,57c.62,1.32,1.3,2.62,2,3.88l3.92-2.28a51.19,51.19,0,0,1-6.63-22.49l0-.32.31-.05c4.64-.68,9.57-1.42,14.37-2.34,1.55-.29,3.15-.6,4.7-1a47.46,47.46,0,0,0,5.18-2l.16-.07c-1.42-1.18-1.91-2.75-2.3-5.33,0,0,0-.12,0-.12h0V48s0,0,0,0-.23-.24-.25-.36l-.3-.85h0l.37.29h0a11.14,11.14,0,0,1,0-2.4A30.33,30.33,0,0,1,401,46.15c-1.92.37-3.9.53-5.77.72-3.68.39-7.39.62-10.21.81h-.45l.09-.45A50.5,50.5,0,0,1,394,26Z" style="fill: #fff"/>
          </g>
          <g id="_Group_6" data-name="&lt;Group&gt;">
            <path id="_Path_4" data-name="&lt;Path&gt;" d="M425.43,41.5l.16,2.48.14,2.21,4.45-2.1a6.62,6.62,0,0,0,7.47,1.77l2.27-1,1.58-.7,2.26-1,3.67-1.62A2.83,2.83,0,0,0,449,38.89a1.29,1.29,0,0,0-.58-1.13,9.78,9.78,0,0,0-1-.5c-.29-.14-.45-.28-.42-.62a7,7,0,0,0,.12-1.51,1.42,1.42,0,0,0-.67-1.17c-.33-.19-.71-.28-1-.48-.85-.52-.11-1.59-.2-2.34-.11-.91-1-1.16-1.71-1.5-.23-.11-.54-.24-.59-.52a3.89,3.89,0,0,1,.12-.89,1.88,1.88,0,0,0-1.44-1.91,3,3,0,0,0-2,.09l-3.17,1.4c.24-.74-.53-1.31-1.16-1.43a4.75,4.75,0,0,0-2.95.74,13.56,13.56,0,0,0-3.78,2.9,7.78,7.78,0,0,0-2,4.86l-2.09,1a2.58,2.58,0,0,1,.78,1.61Z" style="fill: #bd5158"/>
            <path id="_Compound_Path_9" data-name="&lt;Compound Path&gt;" d="M425.42,46.72l-.59-9.2a2.25,2.25,0,0,0-.69-1.38l-.34-.35.44-.21,1.9-.92a8.12,8.12,0,0,1,2.05-4.87,13.79,13.79,0,0,1,3.88-3,5,5,0,0,1,3.18-.78,2,2,0,0,1,1.31.86,1.31,1.31,0,0,1,.15.37l2.67-1.18a3.44,3.44,0,0,1,2.23-.11,2.23,2.23,0,0,1,1.69,2.26,1.68,1.68,0,0,1-.07.43,1.54,1.54,0,0,0-.05.39c0,.09.23.18.36.25l.34.15c.66.3,1.49.66,1.61,1.64a3.19,3.19,0,0,1-.11,1c-.14.63-.17.93.14,1.12a3.68,3.68,0,0,0,.49.23,4.45,4.45,0,0,1,.54.25,1.79,1.79,0,0,1,.85,1.43,4.57,4.57,0,0,1-.06,1.12,3.4,3.4,0,0,0-.06.46c0,.13,0,.16.22.28l.35.16a4.4,4.4,0,0,1,.72.36,1.63,1.63,0,0,1,.74,1.4,3.2,3.2,0,0,1-1.73,3l-9.79,4.31a6.91,6.91,0,0,1-7.69-1.67l-4.22,2Zm4.85-3.06.17.2a6.25,6.25,0,0,0,7.07,1.69l9.78-4.32a2.49,2.49,0,0,0,1.33-2.32,1,1,0,0,0-.42-.85,3.72,3.72,0,0,0-.63-.32l-.37-.17a.93.93,0,0,1-.62-1c0-.16,0-.33.07-.49a3.81,3.81,0,0,0,.06-.94,1.1,1.1,0,0,0-.5-.91,4.58,4.58,0,0,0-.46-.2,3.59,3.59,0,0,1-.59-.29c-.77-.47-.59-1.27-.46-1.86a2.59,2.59,0,0,0,.1-.73c-.07-.54-.5-.77-1.2-1.08l-.31-.14c-.31-.15-.71-.34-.79-.78a1.63,1.63,0,0,1,.06-.67c0-.1,0-.2.05-.3a1.55,1.55,0,0,0-1.19-1.56,2.7,2.7,0,0,0-1.76.08l-3.88,1.71.24-.74a.5.5,0,0,0-.06-.44,1.25,1.25,0,0,0-.83-.53,4.34,4.34,0,0,0-2.72.7,13.13,13.13,0,0,0-3.69,2.82,7.38,7.38,0,0,0-1.89,4.64v.21l-.19.1L425,36a2.9,2.9,0,0,1,.57,1.47l.53,8.18,4-1.89Z" style="fill: #fff"/>
          </g>
          <g id="_Group_7" data-name="&lt;Group&gt;">
            <path id="_Path_5" data-name="&lt;Path&gt;" d="M413.5,79.59l-.22,0a2.62,2.62,0,0,0,0,.28A1.39,1.39,0,0,1,413.5,79.59Z" style="fill: #272525"/>
            <path id="_Path_6" data-name="&lt;Path&gt;" d="M412.89,81l.05-1.83,1.37.2-.59.5a1,1,0,0,0-.17.18Z" style="fill: #fff"/>
          </g>
          <g id="_Group_8" data-name="&lt;Group&gt;">
            <path id="_Path_7" data-name="&lt;Path&gt;" d="M414.1,62.45l4,.59,2.45.36,1.9.28c-.42-5.11-.8-9.11-.8-9.11a6.62,6.62,0,0,0,4.24-6.4l-.13-2L425.59,44l-.16-2.48-.26-4a2.84,2.84,0,0,0-2.1-2.39,1.27,1.27,0,0,0-1.21.26c-.31.26-.55.58-.86.84a.56.56,0,0,1-.72,0,6.29,6.29,0,0,0-1.14-.55,1.54,1.54,0,0,0-1.31.09,6.34,6.34,0,0,0-.83.81.88.88,0,0,1-.91.27,5.74,5.74,0,0,1-1-.58,1.48,1.48,0,0,0-1.21-.18,2.79,2.79,0,0,0-1,.76,2.38,2.38,0,0,1-.8.68c-.24.07-.47-.11-.66-.23a1.89,1.89,0,0,0-2.26.11,3,3,0,0,0-1,2.31l.2,3a1.52,1.52,0,0,0-1.13.07,2.41,2.41,0,0,0-1,2.06,15.57,15.57,0,0,0,.28,3.4,14.8,14.8,0,0,0,.58,2.64A5.33,5.33,0,0,0,408.51,53a10.07,10.07,0,0,0,3.19,1.84s.36,3.45.73,7.95A2.66,2.66,0,0,1,414.1,62.45Z" style="fill: #bd5158"/>
            <path id="_Compound_Path_10" data-name="&lt;Compound Path&gt;" d="M422.8,64.09l-8.75-1.3a2.26,2.26,0,0,0-1.44.34l-.48.29,0-.56c-.32-3.83-.63-6.93-.71-7.74a9.8,9.8,0,0,1-3.11-1.82A5.75,5.75,0,0,1,406.85,51a16.1,16.1,0,0,1-.6-2.7l0-.22a14.17,14.17,0,0,1-.24-3.26,2.58,2.58,0,0,1,1.17-2.34,1.84,1.84,0,0,1,.9-.18l-.16-2.58A3.32,3.32,0,0,1,409,37.15a2.21,2.21,0,0,1,2.68-.14c.16.1.31.2.37.18a1.55,1.55,0,0,0,.5-.42l.15-.16a3.11,3.11,0,0,1,1.1-.85,1.88,1.88,0,0,1,1.51.21c.13.07.26.16.38.24a2.14,2.14,0,0,0,.54.31c.13,0,.3,0,.56-.2A3.63,3.63,0,0,0,417,36a3.66,3.66,0,0,1,.61-.56,1.83,1.83,0,0,1,1.59-.13,4.29,4.29,0,0,1,1,.44l.24.13c.22.12.25.1.33,0a3.68,3.68,0,0,0,.4-.39c.15-.15.3-.31.47-.45a1.61,1.61,0,0,1,1.51-.33,3.18,3.18,0,0,1,2.37,2.71l.68,10.67A6.91,6.91,0,0,1,422,54.79c.09,1,.42,4.54.77,8.86Zm-9-2,.34,0L422,63.27c-.39-4.84-.75-8.63-.76-8.67l0-.26.24-.09a6.24,6.24,0,0,0,4-6.06l-.68-10.67A2.5,2.5,0,0,0,423,35.45a.91.91,0,0,0-.9.19,5.08,5.08,0,0,0-.41.39c-.15.16-.3.31-.46.45a.89.89,0,0,1-1.1.05l-.25-.13A4.43,4.43,0,0,0,419,36a1.21,1.21,0,0,0-1,.05,2.56,2.56,0,0,0-.49.45c-.1.11-.19.22-.3.32a1.21,1.21,0,0,1-1.26.35,3,3,0,0,1-.71-.39,3,3,0,0,0-.33-.21,1.22,1.22,0,0,0-.92-.17,2.41,2.41,0,0,0-.81.64l-.17.19a2.11,2.11,0,0,1-.81.62,1,1,0,0,1-.89-.23,1.58,1.58,0,0,0-1.91,0,2.62,2.62,0,0,0-.85,2l.23,3.54-.49-.17a1.16,1.16,0,0,0-.86.06c-.45.23-.72.82-.79,1.77a13.51,13.51,0,0,0,.24,3.1l0,.22a14.39,14.39,0,0,0,.57,2.57,4.87,4.87,0,0,0,1.24,2,9.66,9.66,0,0,0,3.08,1.77l.2.07,0,.21s.33,3.24.69,7.46A2.73,2.73,0,0,1,413.81,62.08Z" style="fill: #fff"/>
          </g>
          <g id="_Group_9" data-name="&lt;Group&gt;">
            <path id="_Path_8" data-name="&lt;Path&gt;" d="M419.22,82.75c-4-.25-5.54-1-6-1.74a29.61,29.61,0,0,1-.8,4.67c-.51,2.27-1.11,4.52-1.73,6.76q-1,3.7-2.12,7.39A50.5,50.5,0,0,1,393.09,85.3l-.14.1-4.16,2.88a55.7,55.7,0,0,0,57,22.87l-1-5.13-.2,0v0a50,50,0,0,1-24.83-1.22c1-4.65,1.93-9.31,2.76-14a51,51,0,0,0,1.06-8.35,14,14,0,0,1-4.28.29C415.22,82.5,420.21,82.82,419.22,82.75Z" style="fill: #bd5158"/>
            <path id="_Compound_Path_11" data-name="&lt;Compound Path&gt;" d="M434.57,112.63c-1,0-2,0-3-.08a56,56,0,0,1-34.48-14.33,56.82,56.82,0,0,1-8.57-9.74l-.2-.29,4.87-3.37.2.28a49.92,49.92,0,0,0,15,14.2c.76-2.57,1.41-4.85,2-7s1.17-4.32,1.72-6.74a28.66,28.66,0,0,0,.79-4.61l.07-1.08.58.91c.29.48,1.43,1.32,5.72,1.59a14.4,14.4,0,0,0,4.17-.28l.44-.11v.45a46.26,46.26,0,0,1-.93,7.71l-.12.69c-.84,4.72-1.79,9.36-2.7,13.69a51,51,0,0,0,8.36,1.77,49.42,49.42,0,0,0,16-.65l.34-.07v0l.2,0,1.18,5.81-.34.07A56.09,56.09,0,0,1,434.57,112.63Zm-45.3-24.26A55.42,55.42,0,0,0,407.74,105a55.33,55.33,0,0,0,37.61,5.88l-.9-4.44-.2,0v0a50.14,50.14,0,0,1-15.88.59,50.89,50.89,0,0,1-8.78-1.89l-.31-.09.07-.31c.93-4.41,1.91-9.16,2.76-14l.12-.7a49.07,49.07,0,0,0,.92-7.15,15.41,15.41,0,0,1-3.81.21h-.13l-.26,0L417.62,83v0l-.11,0a9.24,9.24,0,0,1-4-1.17,34.91,34.91,0,0,1-.74,4c-.55,2.42-1.18,4.78-1.73,6.77-.61,2.23-1.31,4.65-2.13,7.4l-.12.43-.39-.23A50.66,50.66,0,0,1,393,85.79Z" style="fill: #fff"/>
          </g>
          <g id="_Group_10" data-name="&lt;Group&gt;">
            <path id="_Path_9" data-name="&lt;Path&gt;" d="M434.39,75.05l1.1-2.21,1.24-2.51c-3.89-.5-6.69-.82-6.69-.82A6.59,6.59,0,0,0,424.67,64l-2.25-.34-1.9-.28L418.07,63l-4-.59A2.85,2.85,0,0,0,411.33,64a1.3,1.3,0,0,0,0,1.24c.19.36.46.68.66,1a.55.55,0,0,1-.11.69,9.31,9.31,0,0,0-.74.92,1.73,1.73,0,0,0-.28,1.3,4.82,4.82,0,0,0,.64,1.07.88.88,0,0,1,.07,1,6.21,6.21,0,0,1-.74.8,1.53,1.53,0,0,0-.46,1.11,2.74,2.74,0,0,0,.52,1.12,2.57,2.57,0,0,1,.52.94c0,.25-.17.44-.33.6a1.89,1.89,0,0,0-.38,2.28,3,3,0,0,0,2,1.41l.57.08.22,0a1.08,1.08,0,0,0-.27,1.43,1.4,1.4,0,0,0,.35.38,4.24,4.24,0,0,0,1.43.7,14.63,14.63,0,0,0,2.7.52,21.66,21.66,0,0,0,3.32.17,10.69,10.69,0,0,0,4.13-.9,7.58,7.58,0,0,0,3.1-2.62s1.64.17,4.13.47a2.34,2.34,0,0,1,.22-1.09Z" style="fill: #bd5158"/>
            <path id="_Compound_Path_12" data-name="&lt;Compound Path&gt;" d="M420.46,83.15a24.75,24.75,0,0,1-2.79-.18,14.83,14.83,0,0,1-2.76-.54,4.73,4.73,0,0,1-1.55-.76,1.64,1.64,0,0,1-.42-.46,1.38,1.38,0,0,1-.08-1.36l-.2,0a3.38,3.38,0,0,1-2.29-1.57,2.25,2.25,0,0,1,.43-2.71c.12-.11.25-.24.24-.3a1.64,1.64,0,0,0-.33-.6l-.14-.2a2.87,2.87,0,0,1-.57-1.27,1.86,1.86,0,0,1,.54-1.38c.09-.11.2-.21.3-.31a2.42,2.42,0,0,0,.41-.45c.07-.12.12-.29-.07-.61l-.21-.31a3.13,3.13,0,0,1-.47-.84,2,2,0,0,1,.32-1.59,5,5,0,0,1,.55-.71l.21-.25c.14-.17.13-.2.07-.3a5.35,5.35,0,0,0-.29-.47,4.49,4.49,0,0,1-.37-.59,1.62,1.62,0,0,1,0-1.54,3.22,3.22,0,0,1,3.13-1.72l10.57,1.57a6.92,6.92,0,0,1,5.62,5.52l6.44.79.48.07-4.34,8.76a1.91,1.91,0,0,0-.18.93v.4l-.4,0-3.92-.46a7.88,7.88,0,0,1-3.13,2.58,11.08,11.08,0,0,1-4.26.93Zm-6.67-20.38a2.54,2.54,0,0,0-2.14,1.36.92.92,0,0,0,0,.92,5.43,5.43,0,0,0,.32.51,3.61,3.61,0,0,1,.33.53.86.86,0,0,1-.15,1.07,2.75,2.75,0,0,1-.22.26,5.19,5.19,0,0,0-.48.62,1.39,1.39,0,0,0-.25,1,2.64,2.64,0,0,0,.37.64c.08.12.17.23.24.35a1.23,1.23,0,0,1,.07,1.35,3.25,3.25,0,0,1-.52.58l-.26.27a1.18,1.18,0,0,0-.37.85,2.22,2.22,0,0,0,.44.92l.15.21a2.31,2.31,0,0,1,.45.9,1,1,0,0,1-.4.87,1.58,1.58,0,0,0-.36,1.9,2.67,2.67,0,0,0,1.79,1.23l1.55.23-.59.5a.74.74,0,0,0-.2,1,1.54,1.54,0,0,0,.28.3,4,4,0,0,0,1.32.64,14.74,14.74,0,0,0,2.63.51,23,23,0,0,0,3.27.16,10.51,10.51,0,0,0,4-.86,7.25,7.25,0,0,0,3-2.51l.11-.17.21,0,3.76.43a2.33,2.33,0,0,1,.24-.85l3.9-7.89c-3.63-.46-6.2-.76-6.2-.76l-.26,0,0-.26a6.24,6.24,0,0,0-5.08-5.2l-10.57-1.57Z" style="fill: #fff"/>
          </g>
          <g id="_Group_11" data-name="&lt;Group&gt;">
            <path id="_Path_10" data-name="&lt;Path&gt;" d="M461.72,44.79A7.43,7.43,0,0,1,464,48.08,20.17,20.17,0,0,1,465.46,46c.5-.63,1-1.23,1.56-1.83,1.46-1.61,3-3.17,4.52-4.7,2.37-2.37,4.8-4.69,7.24-7a50.81,50.81,0,0,1,6.11,23l5.23-.13a55.66,55.66,0,0,0-30-48.13l-2.42,4.63a50.51,50.51,0,0,1,13.94,10.69c-3.12,3.48-6.23,7-9.26,10.53a55.25,55.25,0,0,0-6.13,8.1c-.19.32-.36.64-.54,1a10.26,10.26,0,0,1,6,2.75Z" style="fill: #bd5158"/>
            <path id="_Compound_Path_13" data-name="&lt;Compound Path&gt;" d="M484.55,55.75V55.4a51.63,51.63,0,0,0-1-8.73A50.48,50.48,0,0,0,478.69,33c-2.72,2.56-4.92,4.69-6.9,6.67-1.38,1.37-3,3-4.51,4.7-.44.48-1,1.13-1.54,1.81a19.7,19.7,0,0,0-1.41,2.08l-.46.74-.18-.85A6.92,6.92,0,0,0,461.48,45a10,10,0,0,0-5.78-2.65l-.54,0,.26-.48.54-1a51.21,51.21,0,0,1,5.69-7.58l.48-.57c3.14-3.69,6.33-7.26,9.06-10.3a50.21,50.21,0,0,0-13.63-10.39l-.31-.16L460,6.66l.31.16a56.15,56.15,0,0,1,30.17,48.43v.35Zm-5.68-23.88.21.4a51,51,0,0,1,5.17,14.27,51.85,51.85,0,0,1,1,8.49l4.53-.11a55.82,55.82,0,0,0-2.58-15.14,55.18,55.18,0,0,0-15.91-24.56,55.84,55.84,0,0,0-11-7.62l-2.09,4a51.1,51.1,0,0,1,13.73,10.61l.21.23-.21.24c-2.78,3.08-6.05,6.75-9.26,10.52l-.48.57a50.44,50.44,0,0,0-5.61,7.47l-.28.5a10.73,10.73,0,0,1,5.41,2.55h0l.26.25h0l.08.08.17.16.06.06.17.16h0l0,0a8.87,8.87,0,0,1,1.64,2.24c.31-.48.68-1,1.08-1.53.55-.7,1.13-1.35,1.57-1.85,1.54-1.7,3.15-3.34,4.53-4.72,2.07-2.07,4.38-4.29,7.25-7Z" style="fill: #fff"/>
          </g>
          <g id="_Group_12" data-name="&lt;Group&gt;">
            <path id="_Path_11" data-name="&lt;Path&gt;" d="M453.5,80a26.06,26.06,0,0,0,1-4.44,7.55,7.55,0,0,0-1.5-5.24s1-2.25,2.48-5.4a2.28,2.28,0,0,1-1-.51l-2.95-2.73L449.72,60l-2-1.86c-2,4.24-3.49,7.48-3.49,7.48a6.6,6.6,0,0,0-6.87,3.42l-.63,1.26-1.24,2.51-1.1,2.21-1.78,3.6a2.87,2.87,0,0,0,.5,3,1.37,1.37,0,0,0,1.12.53,10.3,10.3,0,0,0,1.22-.29c.29-.07.5-.07.68.19s.37.63.59.93a2,2,0,0,0,1.1.8,3.24,3.24,0,0,0,1.33-.25.9.9,0,0,1,1,.23,8.21,8.21,0,0,1,.56,1,1.49,1.49,0,0,0,1,.74,3.24,3.24,0,0,0,1.23-.2,2.09,2.09,0,0,1,1-.16c.26.08.36.4.48.61a1.88,1.88,0,0,0,2.39.81,3,3,0,0,0,1.57-1.38l1.41-2.86a1.17,1.17,0,0,0,1.06.6,2,2,0,0,0,1.33-.49A4.51,4.51,0,0,0,453.5,80C453.88,78.52,453.13,81.54,453.5,80Z" style="fill: #bd5158"/>
            <path id="_Compound_Path_14" data-name="&lt;Compound Path&gt;" d="M446.07,87.09A2.21,2.21,0,0,1,444.13,86a.8.8,0,0,1-.08-.16c-.06-.11-.14-.27-.2-.29a1.36,1.36,0,0,0-.62.11l-.19.06a3.48,3.48,0,0,1-1.38.2,1.79,1.79,0,0,1-1.22-.9c-.09-.14-.16-.29-.24-.44a3.2,3.2,0,0,0-.29-.52c-.11-.12-.26-.22-.67-.11a1.71,1.71,0,0,0-.3.09,2.53,2.53,0,0,1-1.18.16,2.29,2.29,0,0,1-1.31-.93,5,5,0,0,1-.35-.54c-.08-.13-.16-.27-.25-.4s-.09-.11-.32-.06l-.4.11a4,4,0,0,1-.88.19,1.69,1.69,0,0,1-1.4-.64,3.19,3.19,0,0,1-.55-3.38l4.75-9.58a6.93,6.93,0,0,1,7-3.65c.38-.81,1.7-3.67,3.38-7.25l.21-.43,7.11,6.6a2.13,2.13,0,0,0,.82.43l.4.11-.18.37c-1.22,2.61-2.12,4.6-2.39,5.2a8,8,0,0,1,1.45,5.31,17.22,17.22,0,0,1-.69,3.4c-.09.36-.19.72-.28,1.08l-.21.7a4.14,4.14,0,0,1-1.23,1.93,2.33,2.33,0,0,1-1.56.58,1.9,1.9,0,0,1-1-.32l-1.18,2.38A3.4,3.4,0,0,1,447,86.92,2.5,2.5,0,0,1,446.07,87.09Zm-2.32-2.3a1,1,0,0,1,.3,0,1.09,1.09,0,0,1,.62.65l.06.13a1.53,1.53,0,0,0,2,.66,2.68,2.68,0,0,0,1.38-1.22l1.76-3.55.29.72a.84.84,0,0,0,.75.38,2.07,2.07,0,0,0,1.27-.41c.55-.45.49-1.19,1.38-2.25h-.17l-.09.28v-.12h0c.06-1,.12-.75.18-1a17.85,17.85,0,0,0,.66-3.41,7.4,7.4,0,0,0-1.42-5.08l-.13-.2.08-.21s.93-2.09,2.32-5.06a2.4,2.4,0,0,1-.72-.46l-6.42-6c-1.9,4-3.28,7-3.28,7l-.11.23-.26,0a6.22,6.22,0,0,0-6.51,3.23l-4.75,9.58a2.52,2.52,0,0,0,.45,2.61,1,1,0,0,0,.83.41,3.34,3.34,0,0,0,.73-.17l.44-.11a.88.88,0,0,1,1,.33,4.3,4.3,0,0,1,.29.45,3.64,3.64,0,0,0,.3.46,1.62,1.62,0,0,0,.88.68,1.85,1.85,0,0,0,.84-.15l.34-.1a1.23,1.23,0,0,1,1.38.35,3,3,0,0,1,.39.66,2.75,2.75,0,0,0,.2.38,1.2,1.2,0,0,0,.72.57,2.65,2.65,0,0,0,1-.16l.25-.08A2.43,2.43,0,0,1,443.75,84.79Z" style="fill: #fff"/>
          </g>
          <g id="_Group_13" data-name="&lt;Group&gt;">
            <path id="_Path_12" data-name="&lt;Path&gt;" d="M482.65,59h1a48.06,48.06,0,0,1-6.38,22.59c-4.4-2-8.51-3.89-13-5.68-1.59-.64-3-1.26-4.66-1.79a37.94,37.94,0,0,0-5.47-1.23,11.2,11.2,0,0,1-.34,6c-.39,1.36-.64,3.14-2,3.89a27.89,27.89,0,0,1,3,.77c.72.25,1.42.53,2.11.83,2,.85,3.9,1.81,5.81,2.78,2.62,1.32,5.21,2.7,7.78,4.1a53.6,53.6,0,0,1-22.53,14l1.55,5,.19-.07,0,.07a58.1,58.1,0,0,0,12.64-5.68,59.19,59.19,0,0,0,20-20A55.82,55.82,0,0,0,488.34,71c1.09-3.84.55-7.8.74-11.79Z" style="fill: #bd5158"/>
            <path id="_Compound_Path_15" data-name="&lt;Compound Path&gt;" d="M449.42,110.77l0-.06-.19.06-1.82-5.88.44-.14A52.89,52.89,0,0,0,469.74,91.3c-2.77-1.5-5.07-2.72-7.23-3.81-1.82-.92-3.78-1.9-5.78-2.76-.56-.25-1.31-.56-2.08-.82a26.29,26.29,0,0,0-2.93-.75l-1.2-.26,1.07-.6c1-.55,1.31-1.79,1.61-3,.06-.22.11-.43.17-.64a10.93,10.93,0,0,0,.36-5.71l-.19-.71.71.13a40.32,40.32,0,0,1,5.56,1.25c1.36.44,2.61.94,3.93,1.47l.8.33c3.55,1.42,6.87,2.9,10.38,4.47l2.34,1a47.25,47.25,0,0,0,6.13-21.52h-.74v-.95h1.78l-.09,0,5.31.22v.47c0,.88.06,1.76,0,2.64a36.72,36.72,0,0,1-1,9.24,55.87,55.87,0,0,1-6,13.69,59.84,59.84,0,0,1-20.16,20.11,58.21,58.21,0,0,1-12.74,5.72Zm.56-1.22,0,.06a57,57,0,0,0,12.12-5.5,58.72,58.72,0,0,0,10.71-8.28A57.84,57.84,0,0,0,482,84.32a54.84,54.84,0,0,0,5.9-13.46,35.46,35.46,0,0,0,1-9c0-.73,0-1.46.07-2.19l-4.51-.18a48.39,48.39,0,0,1-6.6,22.31l-.21.36-3.1-1.38c-3.5-1.57-6.81-3-10.34-4.46l-.81-.32c-1.3-.53-2.53-1-3.86-1.46a35.05,35.05,0,0,0-4.75-1.1,12.63,12.63,0,0,1-.51,5.52c-.06.19-.11.4-.17.61a6.88,6.88,0,0,1-1.25,2.91c.69.16,1.41.34,2.1.57s1.57.6,2.15.85c2,.87,4,1.85,5.83,2.78,2.3,1.17,4.78,2.48,7.79,4.12l.54.29-.42.44a54.05,54.05,0,0,1-22.29,14l1.27,4.1Z" style="fill: #fff"/>
          </g>
        </g>
      </g>
    </g>
  </g>
</svg>
